<?xml version="1.0" standalone="no"?>
<!DOCTYPE svg PUBLIC "-//W3C//DTD SVG 20010904//EN"
 "http://www.w3.org/TR/2001/REC-SVG-20010904/DTD/svg10.dtd">
<svg version="1.0" xmlns="http://www.w3.org/2000/svg"
 width="3828.000000pt" height="894.000000pt" viewBox="0 0 3828.000000 894.000000"
 preserveAspectRatio="xMidYMid meet">

<g transform="translate(0.000000,894.000000) scale(0.100000,-0.100000)"
fill="#000000" stroke="none">
<path d="M5002 7330 c-85 -12 -164 -36 -234 -71 -84 -42 -223 -153 -274 -218
-46 -59 -114 -179 -114 -202 0 -8 16 -34 36 -59 48 -61 81 -118 103 -180 l18
-51 42 35 c99 83 245 129 408 130 62 1 113 2 113 3 0 2 -22 28 -50 58 -53 58
-61 86 -34 123 10 15 25 22 48 22 28 0 44 -11 99 -69 36 -38 82 -99 102 -135
29 -53 46 -71 89 -96 l53 -30 58 25 c101 45 177 58 316 53 l126 -5 -5 26 c-8
48 -94 245 -129 298 -78 118 -263 259 -398 302 -113 37 -271 54 -373 41z"/>
<path d="M6145 6976 c-56 -14 -119 -40 -152 -61 l-22 -15 29 -68 c16 -37 34
-104 41 -148 l13 -80 69 -44 c133 -85 211 -197 278 -395 19 -55 34 -101 34
-102 0 -1 37 -6 83 -13 93 -12 208 -48 294 -90 l57 -28 74 23 c79 25 231 50
254 41 7 -3 58 -12 111 -20 53 -8 125 -24 160 -34 34 -11 64 -16 67 -12 16 26
35 136 35 205 0 153 -51 276 -160 386 -72 73 -174 130 -263 149 -30 6 -94 10
-143 8 l-89 -3 5 -25 c3 -14 5 -79 4 -145 0 -101 -4 -130 -24 -179 -38 -99
-93 -133 -140 -86 -25 25 -25 60 0 110 11 21 25 70 31 108 46 278 -206 534
-521 531 -41 0 -97 -6 -125 -13z"/>
<path d="M3825 6894 c-103 -16 -201 -59 -282 -123 -55 -44 -131 -150 -154
-214 -13 -38 -13 -39 16 -60 108 -79 131 -125 79 -166 -37 -29 -52 -27 -114
20 -107 80 -191 109 -320 109 -152 0 -274 -47 -372 -145 -93 -93 -138 -199
-138 -330 0 -159 56 -291 170 -405 112 -112 244 -170 387 -170 l63 0 0 78 c0
268 179 544 435 672 181 89 395 105 583 41 52 -17 97 -29 101 -27 4 3 20 37
35 75 15 39 46 98 68 132 l40 63 -17 63 c-44 162 -189 313 -350 362 -65 20
-178 32 -230 25z"/>
<path d="M4856 6564 c-93 -22 -175 -69 -256 -145 -41 -39 -66 -68 -55 -64 132
43 282 51 395 21 194 -51 351 -177 435 -351 50 -105 68 -183 67 -306 l0 -107
54 -53 c29 -29 55 -51 57 -48 2 2 18 28 36 57 40 64 114 132 178 163 40 19 64
24 138 24 78 0 98 -4 152 -29 37 -17 80 -47 104 -73 37 -40 99 -152 112 -202
5 -20 7 -20 41 -6 51 22 161 19 231 -5 81 -28 151 -75 163 -109 21 -61 -42
-112 -96 -78 -104 65 -183 86 -247 65 l-40 -13 -6 -180 c-5 -135 -12 -200 -28
-260 -24 -91 -82 -217 -135 -296 -44 -65 -40 -70 67 -94 161 -37 346 -14 504
62 75 36 111 62 187 135 106 99 143 155 188 286 26 73 32 107 35 207 6 151 -9
219 -77 355 -121 241 -342 382 -624 397 l-114 6 -7 44 c-9 60 -71 236 -108
306 -39 74 -138 167 -219 205 -174 82 -372 73 -532 -23 l-59 -35 -52 40 c-61
47 -160 93 -233 109 -71 15 -183 13 -256 -5z"/>
<path d="M17500 6567 c-67 -19 -105 -50 -139 -114 -11 -21 -901 -3266 -901
-3285 0 -4 103 -8 229 -8 l229 0 28 103 c15 56 175 641 354 1301 l326 1198 28
-63 c15 -35 255 -587 532 -1226 277 -640 515 -1185 528 -1212 48 -93 112 -140
205 -148 128 -12 211 49 285 210 24 51 272 617 551 1260 280 642 511 1165 514
1161 3 -3 164 -584 356 -1292 l350 -1287 233 -3 c127 -1 232 1 232 6 0 24
-882 3246 -896 3274 -30 59 -55 88 -92 107 -129 65 -264 16 -331 -118 -16 -31
-282 -638 -591 -1349 -512 -1176 -565 -1292 -576 -1270 -7 12 -265 604 -574
1313 -309 710 -568 1302 -576 1316 -51 100 -191 158 -304 126z"/>
<path d="M27973 6570 c-82 -26 -77 -17 -1117 -1750 l-994 -1655 266 -3 c238
-2 268 -1 279 14 7 9 373 628 815 1375 442 747 806 1359 809 1359 6 0 899
-1494 899 -1505 0 -3 -260 -5 -578 -5 l-578 0 -99 -171 c-55 -95 -101 -176
-103 -180 -2 -5 353 -10 788 -11 l792 -3 261 -437 260 -438 289 0 c272 0 288
1 279 18 -40 73 -1977 3282 -1997 3309 -46 60 -98 87 -173 90 -36 1 -80 -2
-98 -7z"/>
<path d="M11799 6515 c-424 -71 -701 -332 -764 -720 -40 -246 4 -494 121 -682
128 -205 308 -328 594 -404 33 -9 313 -14 1030 -19 963 -6 987 -7 1062 -27
107 -30 173 -67 238 -132 68 -68 107 -146 127 -255 36 -201 -31 -408 -168
-516 -68 -54 -114 -76 -207 -103 -77 -22 -77 -22 -1419 -25 l-1343 -3 0 -234
0 -235 1346 0 c1465 0 1459 0 1631 56 147 48 248 109 353 214 100 99 156 187
201 318 71 205 77 509 13 730 -86 295 -292 478 -629 555 -87 20 -128 21 -1075
27 -884 5 -991 8 -1043 23 -222 65 -346 235 -347 473 -1 237 115 405 325 476
l70 23 1288 3 1287 3 0 234 0 235 -1307 -1 c-1011 -1 -1325 -4 -1384 -14z"/>
<path d="M15370 4845 l0 -1685 235 0 235 0 0 1685 0 1685 -235 0 -235 0 0
-1685z"/>
<path d="M22010 4845 l0 -1686 1393 4 c1272 3 1398 5 1462 20 232 57 390 141
521 278 77 81 116 140 165 243 66 141 83 233 84 436 0 202 -8 245 -70 375 -64
134 -175 247 -315 321 -19 10 -98 39 -175 64 l-140 47 90 27 c210 62 326 127
406 229 51 63 102 169 126 257 24 92 24 357 0 455 -76 302 -308 499 -694 587
l-98 22 -1377 3 -1378 4 0 -1686z m2621 1193 c259 -45 396 -148 445 -333 18
-67 18 -237 -1 -308 -45 -174 -147 -264 -355 -315 -56 -13 -180 -16 -857 -19
l-793 -4 0 -184 0 -184 808 -4 c887 -4 874 -3 1009 -66 76 -36 169 -122 206
-189 45 -83 61 -157 60 -272 0 -79 -5 -119 -21 -162 -73 -202 -272 -321 -595
-357 -62 -7 -445 -11 -1077 -11 l-980 0 0 1208 c0 665 3 1212 7 1216 4 4 469
5 1033 3 851 -4 1040 -7 1111 -19z"/>
<path d="M29660 6526 c0 -2 400 -471 890 -1042 l889 -1039 1 -642 0 -643 235
0 235 0 0 643 0 643 890 1037 c490 570 890 1039 890 1042 0 3 -134 5 -297 5
l-298 0 -699 -825 c-384 -454 -702 -823 -705 -820 -3 4 -317 374 -697 823
l-690 817 -322 3 c-177 1 -322 0 -322 -2z"/>
<path d="M34230 5516 c0 -614 4 -1055 10 -1117 24 -240 75 -432 158 -594 200
-388 563 -592 1193 -672 194 -24 729 -24 928 0 496 61 804 190 1029 432 157
168 253 381 309 685 15 86 18 202 20 1188 l4 1092 -230 0 -230 0 -4 -1067 c-3
-1176 0 -1105 -67 -1301 -40 -118 -83 -185 -186 -289 -80 -80 -104 -97 -195
-142 -226 -109 -475 -151 -904 -151 -868 1 -1236 227 -1324 817 -7 48 -11 416
-11 1102 l0 1031 -250 0 -250 0 0 -1014z"/>
<path d="M4664 6245 c-121 -26 -247 -111 -316 -214 -17 -25 -32 -47 -33 -49
-1 -1 -28 13 -59 32 -94 57 -167 78 -291 83 -129 6 -201 -8 -310 -62 -126 -61
-230 -166 -295 -295 -175 -348 20 -781 405 -896 82 -25 258 -25 340 0 104 31
194 85 276 166 42 41 84 90 93 108 17 33 17 34 -15 87 -70 115 -181 224 -276
271 -83 41 -166 51 -251 30 -77 -18 -102 -14 -122 24 -38 71 46 121 207 121
98 0 204 -32 291 -88 77 -49 177 -152 242 -251 51 -77 57 -82 105 -94 83 -21
209 -15 291 14 220 77 356 265 357 493 3 342 -305 593 -639 520z"/>
<path d="M7085 5834 c-11 -3 -30 -7 -42 -10 -21 -4 -18 -10 40 -82 77 -96 160
-267 182 -374 8 -42 15 -119 15 -170 l0 -92 64 63 c35 35 79 91 97 124 42 75
74 92 117 60 16 -12 28 -31 30 -49 4 -41 -59 -142 -140 -225 l-66 -68 53 -40
c136 -102 249 -309 262 -478 l6 -72 35 27 c97 74 214 265 248 408 21 86 24
269 5 344 -25 100 -106 267 -165 340 -103 127 -281 239 -434 274 -73 17 -269
29 -307 20z"/>
<path d="M5830 5607 c-81 -42 -119 -87 -163 -192 -23 -55 -24 -62 -11 -95 42
-108 69 -300 55 -390 -13 -85 -67 -115 -116 -66 -22 22 -24 30 -18 93 11 139
-38 332 -111 431 -68 91 -69 91 -102 26 -35 -70 -145 -190 -220 -239 -115 -77
-301 -122 -429 -105 -101 14 -99 14 -135 -42 -19 -29 -68 -86 -108 -126 l-74
-74 4 -96 c4 -81 9 -106 31 -150 36 -68 98 -128 167 -161 47 -22 69 -26 145
-26 99 0 155 20 221 77 l32 29 -39 67 c-64 110 -109 279 -87 328 28 62 128 42
128 -25 0 -38 26 -133 50 -183 25 -53 109 -152 175 -207 69 -58 176 -108 259
-121 274 -44 566 182 665 515 28 94 43 263 31 362 -10 87 -51 214 -94 287 -21
37 -40 53 -79 72 -58 27 -137 32 -177 11z"/>
<path d="M2514 5467 c-57 -62 -106 -157 -125 -242 -21 -92 -18 -326 5 -400 40
-133 142 -278 246 -350 l42 -29 21 29 c31 45 116 123 163 151 33 20 46 35 63
81 48 124 159 255 277 325 61 37 60 30 16 133 -17 39 -33 78 -36 88 -4 14 -18
17 -78 17 -181 1 -351 70 -490 201 -29 27 -53 49 -54 49 -1 0 -24 -24 -50 -53z"/>
<path d="M3288 4919 c-151 -83 -253 -247 -265 -429 -15 -223 126 -441 337
-521 213 -81 473 -7 605 172 l42 58 37 -26 c110 -74 275 -120 391 -108 l60 6
0 124 0 124 -41 29 c-110 80 -194 236 -194 360 0 38 -2 43 -17 37 -143 -55
-275 -73 -398 -56 -165 23 -312 92 -430 202 -34 33 -64 59 -66 59 -2 0 -30
-14 -61 -31z"/>
<path d="M7224 4883 c-30 -74 -74 -159 -108 -205 -38 -51 -188 -186 -251 -226
-70 -45 -190 -92 -284 -111 -89 -18 -91 -19 -178 -95 -100 -88 -264 -201 -363
-251 l-68 -34 -6 -55 c-34 -266 218 -500 479 -446 127 26 240 114 294 230 34
73 42 221 16 290 -28 75 -30 105 -6 129 26 26 72 27 95 2 28 -31 59 -133 64
-215 l5 -79 96 6 c161 9 297 71 400 183 73 80 114 165 140 292 34 162 13 278
-74 417 -46 74 -105 136 -169 179 -52 35 -64 33 -82 -11z"/>
<path d="M2836 4420 c-21 -23 -52 -72 -69 -109 -27 -57 -32 -79 -35 -168 -4
-85 -1 -112 18 -167 43 -131 159 -244 289 -283 129 -39 282 -15 401 64 l55 36
-82 18 c-284 61 -480 276 -527 576 l-11 75 -39 -42z"/>
<path d="M5047 4360 c-96 -78 -215 -116 -339 -107 l-78 5 0 -61 c0 -79 20
-174 57 -268 62 -160 165 -274 325 -362 195 -106 373 -122 576 -53 77 26 198
91 244 131 27 23 27 23 12 76 -7 30 -14 82 -14 117 0 34 -3 62 -7 62 -5 0 -30
-7 -58 -15 -169 -52 -444 -59 -557 -14 -49 20 -55 94 -8 119 16 8 40 8 95 -1
45 -7 126 -10 207 -6 188 7 322 49 530 165 89 50 238 157 238 172 0 5 -12 10
-27 10 -14 0 -73 16 -129 35 l-103 35 -58 -44 c-243 -188 -561 -184 -803 8
-25 20 -47 36 -50 36 -3 -1 -26 -18 -53 -40z"/>
<path d="M3980 3959 c-60 -55 -179 -119 -257 -139 -38 -10 -55 -21 -73 -47
l-23 -33 29 -41 c62 -91 188 -181 316 -227 66 -24 86 -27 213 -27 127 0 147 3
213 27 90 32 167 78 234 138 l51 45 -47 70 c-25 38 -58 102 -73 142 -24 64
-30 72 -48 66 -11 -3 -65 -6 -120 -6 -108 1 -204 20 -294 59 -29 13 -56 24
-60 24 -3 -1 -31 -23 -61 -51z"/>
<path d="M4910 2290 l0 -1170 165 0 165 0 0 1110 0 1110 -27 6 c-83 17 -175
50 -231 80 -34 19 -65 34 -67 34 -3 0 -5 -526 -5 -1170z"/>
</g>
</svg>
