<svg id="svg" version="1.1" xmlns="http://www.w3.org/2000/svg" xmlns:xlink="http://www.w3.org/1999/xlink" width="400" height="93.41692789968653" viewBox="0, 0, 400,93.41692789968653"><g id="svgg"><path id="path0" d="M51.667 15.522 C 48.498 16.170,46.319 17.612,44.986 19.941 C 44.486 20.815,44.470 20.826,44.030 20.603 C 41.972 19.555,39.123 19.610,37.000 20.738 C 36.321 21.099,34.500 22.914,34.500 23.230 C 34.500 23.392,34.065 23.442,32.708 23.434 C 30.294 23.420,27.444 24.603,26.866 25.860 C 26.839 25.920,26.662 26.145,26.473 26.360 C 25.090 27.934,24.519 32.058,25.428 33.902 L 25.750 34.554 25.105 35.214 C 23.764 36.587,23.423 37.706,23.420 40.750 L 23.417 43.417 24.040 44.680 C 24.599 45.813,26.412 48.000,26.793 48.000 C 26.861 48.000,26.890 48.764,26.858 49.697 C 26.679 54.937,32.275 58.679,36.540 56.171 L 37.083 55.852 37.917 56.684 C 40.849 59.613,46.110 59.751,49.230 56.980 C 49.906 56.380,49.923 56.375,50.333 56.662 C 51.041 57.156,53.385 58.144,54.132 58.264 C 54.522 58.326,54.881 58.442,54.930 58.522 C 55.134 58.852,58.809 58.393,59.242 57.983 C 59.329 57.901,59.499 57.833,59.620 57.833 C 59.741 57.833,60.139 57.645,60.505 57.414 C 61.209 56.969,61.514 57.034,62.311 57.797 C 64.994 60.365,71.065 59.131,72.902 55.645 C 73.196 55.086,73.302 55.027,74.284 54.864 C 77.020 54.411,79.718 52.041,80.239 49.632 C 80.298 49.355,80.609 48.989,81.043 48.685 C 85.163 45.793,86.307 40.942,84.006 36.113 C 83.436 34.916,81.627 32.913,80.668 32.417 C 80.160 32.155,80.111 31.611,80.523 30.803 C 80.602 30.648,80.666 30.011,80.665 29.386 C 80.661 25.080,77.164 21.764,72.916 22.036 C 72.229 22.081,71.667 22.071,71.667 22.016 C 71.667 21.551,68.893 19.333,68.310 19.333 C 68.176 19.333,67.990 19.257,67.897 19.164 C 67.374 18.641,63.784 18.837,62.514 19.458 L 61.917 19.750 60.583 18.404 C 58.714 16.517,58.165 16.210,55.417 15.506 C 54.618 15.301,52.706 15.310,51.667 15.522 M56.110 17.176 C 58.702 18.068,60.868 20.435,61.636 23.215 L 61.790 23.774 60.187 23.770 C 58.938 23.767,58.346 23.850,57.514 24.144 C 56.179 24.616,55.658 24.410,54.870 23.100 C 54.158 21.915,53.304 21.124,52.811 21.194 C 52.195 21.281,52.203 21.979,52.826 22.576 C 53.518 23.239,53.499 23.258,52.125 23.269 C 50.644 23.281,49.261 23.680,48.180 24.408 L 47.363 24.958 47.080 24.218 C 46.925 23.812,46.546 23.149,46.238 22.746 C 45.592 21.899,45.643 21.614,46.708 20.125 C 48.772 17.241,52.709 16.006,56.110 17.176 M68.125 20.895 C 70.507 22.103,71.591 24.615,70.746 26.967 C 70.381 27.981,70.493 28.375,71.124 28.303 C 71.880 28.216,72.243 27.261,72.285 25.250 L 72.319 23.583 73.535 23.592 C 77.184 23.616,79.972 27.277,78.997 30.762 C 78.762 31.601,78.892 31.570,77.333 31.158 C 76.170 30.851,73.386 30.872,72.536 31.194 C 71.864 31.449,71.785 31.447,71.175 31.152 C 70.150 30.656,69.148 30.354,68.144 30.236 L 67.215 30.126 66.925 29.188 C 66.282 27.103,64.691 24.961,63.504 24.585 C 63.272 24.511,63.167 24.333,63.167 24.015 C 63.167 23.613,62.786 22.301,62.434 21.490 C 62.325 21.237,63.315 20.661,64.250 20.432 C 65.156 20.211,67.274 20.464,68.125 20.895 M43.000 21.852 C 45.281 22.920,46.663 25.380,45.777 26.795 C 45.563 27.137,45.253 27.773,45.088 28.208 C 44.739 29.129,44.838 29.098,43.667 28.645 C 38.852 26.778,33.021 30.967,33.002 36.304 L 33.000 37.024 32.042 36.917 C 26.038 36.249,24.404 28.451,29.804 26.231 C 31.507 25.530,33.852 25.836,35.152 26.930 C 35.695 27.387,36.198 27.447,36.493 27.091 C 36.798 26.724,36.561 26.251,35.827 25.766 L 35.165 25.327 35.421 24.714 C 36.606 21.878,40.175 20.531,43.000 21.852 M182.091 23.372 C 181.549 23.569,181.334 23.718,180.727 24.324 C 180.039 25.010,179.887 25.440,178.492 30.625 C 178.114 32.028,177.683 33.608,177.070 35.833 C 176.830 36.704,176.573 37.642,176.498 37.917 C 176.424 38.192,176.168 39.129,175.929 40.000 C 175.690 40.871,175.300 42.296,175.061 43.167 C 174.600 44.852,173.891 47.423,173.661 48.250 C 173.584 48.525,173.401 49.200,173.253 49.750 C 173.106 50.300,172.909 51.012,172.815 51.333 C 172.722 51.654,172.542 52.329,172.417 52.833 C 172.291 53.337,172.112 54.012,172.018 54.333 C 171.925 54.654,171.727 55.367,171.580 55.917 C 171.289 57.000,171.252 57.136,170.590 59.500 C 170.346 60.371,170.105 61.252,170.054 61.458 L 169.961 61.833 173.969 61.833 L 177.978 61.833 178.078 61.458 C 178.133 61.252,178.249 60.821,178.335 60.500 C 178.421 60.179,178.650 59.354,178.843 58.667 C 179.037 57.979,179.297 57.004,179.420 56.500 C 179.544 55.996,179.729 55.283,179.832 54.917 C 179.935 54.550,180.091 53.950,180.180 53.583 C 180.269 53.217,180.406 52.729,180.485 52.500 C 180.648 52.025,180.788 51.519,181.497 48.833 C 181.776 47.779,182.068 46.692,182.146 46.417 C 182.393 45.549,182.638 44.654,183.333 42.083 C 184.265 38.641,184.362 38.286,184.450 38.000 C 184.495 37.854,184.655 38.083,184.835 38.551 C 185.004 38.992,185.213 39.442,185.300 39.551 C 185.388 39.661,185.516 39.938,185.585 40.167 C 185.654 40.396,185.845 40.883,186.009 41.250 C 186.939 43.325,187.167 43.853,187.167 43.939 C 187.167 43.992,187.380 44.496,187.642 45.060 C 188.153 46.162,188.219 46.313,189.411 49.083 C 189.844 50.092,190.337 51.217,190.506 51.583 C 190.675 51.950,191.047 52.813,191.333 53.500 C 191.620 54.188,191.989 55.050,192.154 55.417 C 192.318 55.783,192.647 56.533,192.884 57.083 C 194.827 61.590,195.536 62.333,197.896 62.333 C 199.676 62.333,201.999 60.726,202.000 59.495 C 202.000 59.355,202.101 59.093,202.225 58.912 C 202.348 58.731,202.589 58.208,202.761 57.750 C 202.932 57.292,203.319 56.408,203.620 55.787 C 203.920 55.166,204.167 54.592,204.167 54.511 C 204.167 54.431,204.313 54.076,204.492 53.724 C 204.922 52.876,205.667 51.184,205.667 51.053 C 205.667 50.996,205.849 50.567,206.071 50.100 C 206.620 48.945,207.333 47.338,207.333 47.257 C 207.333 47.220,207.563 46.678,207.844 46.053 C 208.125 45.428,208.418 44.767,208.496 44.583 C 208.646 44.229,209.034 43.353,209.735 41.787 C 209.973 41.257,210.167 40.793,210.167 40.757 C 210.167 40.720,210.381 40.216,210.643 39.637 C 210.905 39.057,211.173 38.433,211.238 38.250 C 211.398 37.797,211.636 38.209,211.959 39.500 C 212.085 40.004,212.263 40.679,212.355 41.000 C 212.446 41.321,212.625 41.996,212.751 42.500 C 212.878 43.004,213.181 44.129,213.424 45.000 C 214.112 47.461,214.129 47.522,214.413 48.583 C 214.561 49.133,214.758 49.846,214.851 50.167 C 214.945 50.487,215.124 51.163,215.250 51.667 C 215.376 52.171,215.554 52.846,215.645 53.167 C 215.737 53.487,215.932 54.200,216.080 54.750 C 216.227 55.300,216.420 55.994,216.507 56.292 C 216.819 57.351,217.021 58.092,217.178 58.750 C 217.265 59.117,217.500 59.960,217.699 60.625 L 218.061 61.833 222.031 61.833 C 226.451 61.833,226.182 61.920,225.774 60.631 C 225.463 59.647,225.227 58.810,224.820 57.250 C 224.282 55.185,223.999 54.132,223.826 53.542 C 223.738 53.244,223.599 52.756,223.517 52.458 C 223.434 52.160,223.167 51.204,222.924 50.333 C 222.681 49.462,222.378 48.337,222.251 47.833 C 222.125 47.329,221.946 46.654,221.855 46.333 C 221.763 46.012,221.568 45.300,221.420 44.750 C 221.273 44.200,221.075 43.487,220.982 43.167 C 220.888 42.846,220.709 42.171,220.583 41.667 C 220.458 41.162,220.280 40.487,220.188 40.167 C 220.097 39.846,219.901 39.133,219.753 38.583 C 219.606 38.033,219.420 37.358,219.341 37.083 C 219.261 36.808,219.035 35.946,218.839 35.167 C 218.642 34.387,218.414 33.600,218.333 33.417 C 218.252 33.233,218.111 32.746,218.020 32.333 C 217.929 31.921,217.780 31.321,217.688 31.000 C 217.597 30.679,217.409 29.964,217.271 29.412 C 217.134 28.859,216.902 28.034,216.757 27.578 C 216.611 27.123,216.363 26.346,216.204 25.852 C 215.064 22.296,210.433 22.221,208.763 25.733 C 208.158 27.005,207.500 28.498,207.500 28.599 C 207.500 28.648,207.284 29.152,207.020 29.719 C 206.289 31.291,205.833 32.322,205.833 32.403 C 205.833 32.473,205.313 33.648,204.403 35.630 C 204.182 36.113,204.000 36.542,204.000 36.583 C 204.000 36.624,203.822 37.053,203.605 37.537 C 203.387 38.021,202.931 39.054,202.590 39.833 C 202.250 40.612,201.790 41.646,201.569 42.130 C 201.348 42.613,201.167 43.042,201.167 43.083 C 201.167 43.171,200.472 44.739,199.904 45.933 C 199.682 46.401,199.500 46.830,199.500 46.887 C 199.500 46.944,199.323 47.386,199.107 47.870 C 198.890 48.354,198.610 48.994,198.483 49.292 C 198.211 49.929,198.066 49.971,197.905 49.458 C 197.840 49.252,197.610 48.694,197.394 48.219 C 197.177 47.744,197.000 47.319,197.000 47.276 C 197.000 47.232,196.731 46.608,196.402 45.890 C 196.074 45.171,195.624 44.188,195.402 43.704 C 195.181 43.220,195.000 42.788,195.000 42.744 C 195.000 42.699,194.856 42.345,194.680 41.957 C 194.505 41.568,194.130 40.739,193.847 40.113 C 193.564 39.488,193.333 38.947,193.333 38.910 C 193.333 38.846,192.806 37.632,192.177 36.250 C 192.010 35.883,191.632 35.021,191.337 34.333 C 189.998 31.216,189.668 30.460,189.334 29.750 C 189.162 29.383,188.786 28.521,188.501 27.833 C 187.415 25.223,186.506 23.833,185.885 23.833 C 185.765 23.833,185.667 23.770,185.667 23.693 C 185.667 23.249,183.071 23.016,182.091 23.372 M291.333 23.520 C 290.666 23.897,289.501 25.113,289.158 25.791 C 289.030 26.043,288.267 27.321,287.463 28.629 C 286.658 29.938,286.000 31.081,286.000 31.171 C 286.000 31.260,285.925 31.333,285.833 31.333 C 285.742 31.333,285.667 31.419,285.667 31.524 C 285.667 31.628,285.254 32.368,284.750 33.167 C 284.246 33.966,283.833 34.705,283.833 34.810 C 283.833 34.914,283.758 35.000,283.667 35.000 C 283.575 35.000,283.500 35.112,283.500 35.250 C 283.500 35.387,283.425 35.500,283.333 35.500 C 283.242 35.500,283.167 35.576,283.167 35.670 C 283.167 35.763,282.679 36.616,282.083 37.565 C 281.487 38.514,281.000 39.375,281.000 39.479 C 281.000 39.582,280.925 39.667,280.833 39.667 C 280.742 39.667,280.667 39.743,280.667 39.836 C 280.667 39.929,280.179 40.782,279.583 41.731 C 278.987 42.681,278.500 43.542,278.500 43.645 C 278.500 43.749,278.425 43.833,278.333 43.833 C 278.242 43.833,278.167 43.910,278.167 44.003 C 278.167 44.096,277.691 44.940,277.109 45.878 C 275.479 48.506,267.834 61.303,267.727 61.584 C 267.643 61.802,268.219 61.833,272.248 61.833 C 276.724 61.833,276.867 61.823,276.952 61.500 C 277.000 61.317,277.105 61.167,277.186 61.167 C 277.267 61.167,277.333 61.090,277.333 60.996 C 277.333 60.902,277.633 60.350,278.000 59.770 C 278.367 59.189,278.667 58.628,278.667 58.524 C 278.667 58.419,278.742 58.333,278.833 58.333 C 278.925 58.333,279.000 58.258,279.000 58.165 C 279.000 58.072,279.375 57.398,279.833 56.667 C 280.292 55.935,280.667 55.306,280.667 55.269 C 280.667 55.231,281.315 54.124,282.107 52.809 C 282.899 51.493,283.695 50.154,283.876 49.833 C 284.302 49.077,286.146 45.984,287.278 44.127 C 287.767 43.326,288.167 42.638,288.167 42.598 C 288.167 42.559,288.542 41.922,289.000 41.183 C 289.458 40.444,289.833 39.803,289.833 39.758 C 289.833 39.714,290.160 39.168,290.559 38.547 C 290.959 37.925,291.473 37.079,291.703 36.667 C 292.739 34.807,292.861 34.649,293.102 34.849 C 293.229 34.955,293.333 35.105,293.333 35.184 C 293.333 35.263,293.645 35.835,294.026 36.455 C 294.407 37.076,294.913 37.926,295.151 38.344 C 295.596 39.126,296.416 40.487,298.375 43.693 C 298.994 44.706,299.500 45.600,299.500 45.681 C 299.500 45.762,297.198 45.848,294.381 45.873 L 289.263 45.917 289.006 46.409 C 288.865 46.680,288.431 47.412,288.042 48.036 C 287.652 48.660,287.333 49.210,287.333 49.260 C 287.333 49.309,286.963 49.965,286.511 50.716 C 286.058 51.468,285.638 52.215,285.576 52.375 C 285.471 52.651,285.966 52.667,294.560 52.667 L 303.656 52.667 304.213 53.542 C 304.520 54.023,304.817 54.529,304.874 54.667 C 304.931 54.804,305.909 56.454,307.047 58.333 L 309.116 61.750 313.959 61.794 L 318.802 61.838 315.972 57.127 C 314.416 54.537,313.076 52.304,312.995 52.167 C 312.915 52.029,312.283 50.991,311.591 49.859 C 310.899 48.727,310.333 47.770,310.333 47.733 C 310.333 47.695,309.771 46.765,309.083 45.667 C 308.396 44.568,307.833 43.594,307.833 43.501 C 307.833 43.409,307.758 43.333,307.667 43.333 C 307.575 43.333,307.500 43.249,307.500 43.146 C 307.500 43.044,306.825 41.882,306.000 40.565 C 305.175 39.248,304.500 38.130,304.500 38.080 C 304.500 38.029,304.062 37.297,303.526 36.452 C 302.990 35.608,302.362 34.579,302.130 34.167 C 300.162 30.669,296.496 24.805,295.952 24.285 C 294.740 23.127,292.644 22.780,291.333 23.520 M122.925 23.852 C 118.728 24.463,115.312 27.184,114.260 30.750 C 114.098 31.300,113.898 31.967,113.816 32.233 C 113.463 33.375,113.687 37.284,114.170 38.417 C 114.248 38.600,114.361 38.923,114.420 39.134 C 114.912 40.884,118.424 44.667,119.558 44.667 C 119.620 44.667,119.988 44.814,120.377 44.994 C 121.903 45.701,122.228 45.722,133.000 45.828 C 144.914 45.945,144.771 45.930,146.014 47.167 C 147.711 48.859,147.258 52.102,145.167 53.230 C 143.820 53.956,142.845 54.000,128.093 54.000 L 114.167 54.000 114.167 57.917 L 114.167 61.833 129.375 61.833 C 145.593 61.833,145.368 61.843,147.827 61.006 C 148.419 60.805,149.105 60.496,149.352 60.320 C 149.599 60.144,149.888 60.000,149.994 60.000 C 150.480 60.000,152.805 57.371,153.395 56.154 C 155.979 50.826,154.663 43.751,150.574 40.983 C 147.908 39.179,147.505 39.127,135.167 39.005 C 124.666 38.901,124.401 38.891,123.750 38.548 C 121.308 37.263,121.208 33.398,123.583 32.125 C 124.693 31.531,125.463 31.500,139.324 31.500 L 153.000 31.500 153.000 27.583 L 153.000 23.667 138.458 23.687 C 130.460 23.698,123.470 23.772,122.925 23.852 M159.167 42.750 L 159.167 61.833 163.083 61.833 L 167.000 61.833 167.000 42.750 L 167.000 23.667 163.083 23.667 L 159.167 23.667 159.167 42.750 M228.500 42.750 L 228.500 61.833 243.708 61.833 C 259.881 61.833,259.709 61.841,262.110 61.023 C 263.995 60.381,267.333 57.907,267.333 57.153 C 267.333 57.082,267.427 56.922,267.542 56.798 C 268.464 55.797,269.321 53.026,269.455 50.610 C 269.656 46.981,268.266 43.912,265.614 42.131 L 264.979 41.705 265.531 41.325 C 267.689 39.841,268.693 37.564,268.723 34.083 C 268.743 31.759,268.668 31.280,268.037 29.750 C 267.386 28.169,265.008 25.500,264.252 25.500 C 264.187 25.500,263.936 25.366,263.692 25.202 C 261.604 23.797,259.845 23.667,243.046 23.667 L 228.500 23.667 228.500 42.750 M306.667 23.819 C 306.667 23.903,306.723 23.997,306.792 24.028 C 306.901 24.076,307.450 24.704,309.012 26.566 C 309.234 26.832,309.567 27.207,309.750 27.400 C 309.933 27.593,310.420 28.163,310.831 28.667 C 311.242 29.171,311.624 29.621,311.678 29.667 C 311.768 29.742,313.225 31.455,314.080 32.491 C 314.265 32.715,314.572 33.062,314.763 33.261 C 314.953 33.461,315.273 33.833,315.474 34.088 C 315.797 34.499,317.305 36.253,317.750 36.736 C 317.842 36.835,318.325 37.404,318.823 38.000 C 319.322 38.596,319.809 39.158,319.907 39.250 C 320.004 39.342,320.368 39.771,320.716 40.204 C 321.064 40.637,321.439 41.087,321.549 41.204 C 321.660 41.321,322.162 41.903,322.667 42.498 C 323.483 43.461,324.259 44.355,324.751 44.898 C 324.843 45.000,325.255 45.494,325.667 45.995 C 326.080 46.497,326.548 47.041,326.708 47.204 C 326.977 47.477,327.000 48.065,327.000 54.667 L 327.000 61.833 331.000 61.833 L 335.000 61.833 335.000 54.625 L 335.000 47.417 335.625 46.727 C 336.257 46.031,336.385 45.882,337.905 44.083 C 338.370 43.533,338.794 43.046,338.847 43.000 C 338.901 42.954,339.386 42.392,339.927 41.750 C 340.894 40.601,341.426 39.981,342.083 39.236 C 342.267 39.029,342.679 38.545,343.000 38.160 C 343.321 37.776,343.894 37.114,344.274 36.689 C 344.654 36.264,345.434 35.356,346.008 34.670 C 346.582 33.985,347.134 33.341,347.234 33.240 C 347.335 33.138,347.679 32.729,348.000 32.331 C 348.321 31.933,348.733 31.451,348.917 31.261 C 349.100 31.071,349.587 30.505,350.000 30.004 C 350.412 29.503,350.863 28.973,351.000 28.826 C 351.137 28.679,351.438 28.339,351.667 28.069 C 352.537 27.046,354.103 25.236,354.583 24.698 C 355.566 23.596,355.861 23.667,350.290 23.667 C 346.493 23.667,345.165 23.719,344.968 23.875 C 344.715 24.076,343.261 25.762,340.332 29.250 C 339.562 30.167,338.889 30.954,338.835 31.000 C 338.782 31.046,338.584 31.285,338.394 31.532 C 338.012 32.031,336.557 33.748,336.167 34.161 C 336.029 34.307,335.579 34.836,335.167 35.338 C 334.754 35.839,334.216 36.474,333.971 36.750 C 333.726 37.025,333.388 37.413,333.221 37.612 C 333.054 37.810,332.654 38.285,332.333 38.667 C 332.012 39.048,331.627 39.507,331.476 39.686 C 331.210 40.001,331.178 39.982,330.392 39.048 C 329.947 38.519,329.493 37.989,329.383 37.872 C 329.272 37.755,328.897 37.304,328.549 36.871 C 328.201 36.438,327.871 36.046,327.814 36.000 C 327.758 35.954,327.092 35.167,326.333 34.250 C 325.575 33.333,324.907 32.546,324.849 32.500 C 324.791 32.454,323.813 31.292,322.675 29.917 C 321.538 28.542,320.527 27.342,320.428 27.250 C 320.329 27.158,319.911 26.671,319.499 26.167 C 318.746 25.246,317.939 24.314,317.530 23.893 C 317.268 23.624,306.667 23.552,306.667 23.819 M356.211 36.125 C 356.275 48.026,356.294 48.650,356.625 50.085 C 357.835 55.316,359.987 58.139,364.366 60.243 C 369.444 62.681,379.257 63.087,386.830 61.170 C 391.008 60.113,394.558 56.902,396.139 52.750 C 397.239 49.861,397.216 50.189,397.288 36.292 L 397.354 23.667 393.436 23.667 L 389.518 23.667 389.458 35.708 C 389.400 47.289,389.385 47.788,389.059 48.750 C 387.885 52.218,385.787 53.628,380.888 54.245 C 377.587 54.660,371.958 54.434,370.534 53.829 C 370.323 53.740,370.034 53.667,369.891 53.667 C 368.433 53.667,365.829 51.405,365.068 49.478 L 364.583 48.250 364.536 35.958 L 364.488 23.667 360.316 23.667 L 356.144 23.667 356.211 36.125 M54.231 24.942 C 54.587 25.066,55.227 25.418,55.652 25.724 L 56.427 26.280 57.057 25.881 C 59.632 24.251,63.576 25.241,64.929 27.856 C 65.336 28.644,66.000 30.662,66.000 31.113 C 66.000 31.473,66.066 31.500,66.965 31.500 C 73.862 31.500,77.298 39.960,72.285 44.601 C 70.185 46.546,67.202 47.321,64.691 46.575 L 63.822 46.317 64.171 45.827 C 65.352 44.168,66.000 41.915,66.000 39.465 C 66.000 37.521,66.619 37.177,68.463 38.096 C 69.399 38.563,69.783 38.572,70.058 38.135 C 70.650 37.196,67.461 35.971,65.912 36.541 C 65.617 36.650,65.512 36.525,65.094 35.565 C 63.867 32.747,60.358 32.426,58.637 34.973 C 58.349 35.401,58.086 35.782,58.054 35.822 C 57.665 36.298,56.871 34.696,56.795 33.280 C 56.547 28.666,52.550 25.812,47.833 26.882 L 47.250 27.015 48.083 26.258 C 49.870 24.636,52.029 24.174,54.231 24.942 M294.535 25.031 C 295.226 25.514,293.637 22.931,311.264 52.208 L 316.156 60.333 313.082 60.333 L 310.008 60.333 307.296 55.757 L 304.583 51.181 296.300 51.132 L 288.017 51.083 289.118 49.208 L 290.218 47.333 296.192 47.333 C 299.478 47.333,302.167 47.290,302.167 47.237 C 302.167 47.154,300.880 44.979,294.428 34.161 C 293.689 32.921,293.032 31.871,292.968 31.828 C 292.834 31.737,292.830 31.742,284.994 45.000 C 283.775 47.063,281.578 50.775,280.111 53.250 C 278.644 55.725,277.102 58.331,276.683 59.042 L 275.921 60.333 273.025 60.333 L 270.128 60.333 270.414 59.898 C 270.571 59.658,275.231 51.914,280.770 42.689 C 291.088 25.505,291.569 24.772,292.635 24.625 C 293.322 24.530,294.036 24.683,294.535 25.031 M185.000 25.023 C 185.892 25.567,185.927 25.630,188.075 30.583 C 188.592 31.775,189.085 32.900,189.172 33.083 C 189.259 33.267,189.654 34.167,190.050 35.083 C 194.205 44.696,198.085 53.500,198.167 53.500 C 198.223 53.500,200.397 48.606,202.999 42.625 C 205.601 36.644,207.978 31.206,208.281 30.541 C 208.585 29.876,208.833 29.299,208.833 29.259 C 208.833 29.154,210.128 26.325,210.401 25.833 C 211.025 24.710,212.826 24.282,213.852 25.013 C 214.503 25.477,214.795 26.086,215.359 28.165 C 215.620 29.129,215.909 30.179,216.000 30.500 C 216.091 30.821,216.541 32.471,217.000 34.167 C 217.459 35.862,217.909 37.512,218.000 37.833 C 218.092 38.154,218.645 40.179,219.229 42.333 C 221.090 49.198,222.351 53.828,223.244 57.083 L 224.114 60.250 221.700 60.296 C 218.820 60.351,219.291 60.780,218.316 57.217 C 217.870 55.585,217.437 54.025,217.355 53.750 C 217.272 53.475,216.811 51.788,216.330 50.000 C 215.558 47.129,214.650 43.795,212.413 35.619 L 211.785 33.321 210.642 35.952 C 210.013 37.399,209.426 38.733,209.337 38.917 C 209.249 39.100,208.643 40.486,207.991 41.997 C 207.340 43.508,206.670 45.045,206.504 45.414 C 206.337 45.782,206.006 46.550,205.767 47.121 C 205.528 47.692,205.153 48.554,204.933 49.038 C 204.714 49.521,204.330 50.404,204.081 51.000 C 203.831 51.596,203.374 52.633,203.064 53.304 C 202.754 53.975,202.500 54.554,202.500 54.591 C 202.500 54.628,202.285 55.129,202.022 55.704 C 201.758 56.279,201.297 57.342,200.996 58.065 C 200.160 60.075,199.354 60.833,198.053 60.833 C 196.295 60.833,195.879 60.355,194.212 56.417 C 193.338 54.351,191.904 51.039,187.084 39.955 C 185.539 36.400,184.224 33.550,184.162 33.621 C 184.100 33.692,183.964 34.087,183.859 34.500 C 183.755 34.912,183.115 37.275,182.438 39.750 C 181.761 42.225,180.297 47.587,179.186 51.667 C 178.075 55.746,177.088 59.365,176.992 59.708 L 176.818 60.333 174.409 60.333 C 172.786 60.333,172.000 60.274,172.000 60.152 C 172.000 60.053,172.150 59.434,172.334 58.777 C 172.517 58.121,173.230 55.521,173.917 53.000 C 174.604 50.479,175.242 48.154,175.333 47.833 C 175.601 46.895,177.647 39.409,178.157 37.500 C 179.659 31.878,181.229 26.342,181.458 25.855 C 182.009 24.690,183.773 24.275,185.000 25.023 M151.463 27.620 L 151.509 30.157 137.713 30.204 C 122.300 30.255,123.404 30.168,121.984 31.451 C 119.903 33.331,119.973 37.652,122.111 39.282 C 123.499 40.341,123.410 40.333,133.710 40.337 C 145.418 40.341,147.020 40.518,149.500 42.083 C 154.093 44.982,154.588 53.739,150.383 57.673 C 147.513 60.358,147.746 60.328,130.208 60.331 L 115.667 60.333 115.667 57.839 L 115.667 55.344 130.042 55.297 C 143.976 55.251,144.442 55.240,145.234 54.917 C 149.423 53.208,149.673 46.934,145.627 45.065 L 144.583 44.583 133.917 44.485 C 122.159 44.376,122.482 44.404,120.170 43.277 C 113.643 40.093,113.386 29.803,119.751 26.473 C 122.449 25.062,122.748 25.039,138.417 25.063 L 151.417 25.083 151.463 27.620 M165.626 42.708 L 165.668 60.333 163.084 60.333 L 160.500 60.333 160.500 42.662 L 160.500 24.991 163.042 25.037 L 165.583 25.083 165.626 42.708 M257.630 25.166 C 264.312 25.768,267.609 29.014,267.279 34.667 C 267.069 38.257,265.466 40.287,262.078 41.253 C 260.703 41.645,260.683 41.726,261.874 42.076 C 270.229 44.535,270.121 56.425,261.715 59.554 C 259.630 60.330,259.549 60.333,244.408 60.333 L 230.000 60.333 230.000 42.667 L 230.000 25.000 242.958 25.006 C 250.085 25.009,256.688 25.081,257.630 25.166 M317.917 26.616 C 320.901 30.184,327.357 37.833,329.889 40.802 C 330.617 41.655,331.266 42.293,331.331 42.219 C 331.396 42.144,332.715 40.583,334.264 38.750 C 337.304 35.150,343.390 27.976,344.643 26.516 C 345.069 26.020,345.515 25.477,345.634 25.307 C 345.844 25.011,352.167 24.800,352.167 25.089 C 352.167 25.167,344.845 33.737,336.296 43.664 L 333.500 46.911 333.500 53.622 L 333.500 60.333 331.000 60.333 L 328.500 60.333 328.500 53.669 L 328.500 47.004 327.547 45.877 C 327.023 45.257,322.823 40.350,318.214 34.972 C 313.605 29.594,309.833 25.151,309.833 25.097 C 309.833 25.044,311.352 25.005,313.208 25.011 L 316.583 25.022 317.917 26.616 M363.008 36.667 C 363.107 49.250,363.074 48.813,364.076 50.858 C 366.131 55.051,372.394 56.766,381.583 55.650 C 386.627 55.037,389.398 52.964,390.551 48.938 C 390.875 47.805,390.894 47.220,390.956 36.371 L 391.021 24.991 393.469 25.037 L 395.917 25.083 395.966 34.833 C 396.046 50.395,395.470 53.444,391.833 56.731 C 385.313 62.621,366.266 62.270,361.115 56.164 C 357.937 52.396,357.668 50.814,357.667 35.871 L 357.667 24.992 360.292 25.037 L 362.917 25.083 363.008 36.667 M51.902 28.342 C 57.307 30.364,56.206 38.549,50.473 38.963 C 48.610 39.097,48.295 38.973,47.432 37.763 C 45.332 34.820,41.504 33.330,39.974 34.859 C 39.573 35.260,39.899 35.958,40.442 35.863 C 43.046 35.408,44.940 36.318,46.496 38.771 C 47.052 39.648,47.027 39.767,46.061 40.836 C 42.935 44.296,37.244 43.475,35.108 39.255 C 32.240 33.590,38.364 27.491,44.079 30.321 C 44.627 30.592,45.080 30.799,45.086 30.782 C 45.780 28.741,49.453 27.426,51.902 28.342 M235.000 42.748 L 235.000 55.349 246.292 55.294 C 258.544 55.236,258.144 55.265,260.083 54.298 C 263.377 52.656,263.810 47.729,260.845 45.641 C 259.303 44.556,259.624 44.588,249.875 44.534 L 241.000 44.484 241.000 42.409 L 241.000 40.333 249.482 40.333 C 258.921 40.333,259.342 40.290,260.688 39.176 C 262.718 37.496,262.626 33.150,260.526 31.548 C 258.831 30.255,258.953 30.267,246.292 30.204 L 235.000 30.148 235.000 42.748 M256.269 31.730 C 259.669 32.131,260.583 32.915,260.583 35.430 C 260.583 36.903,260.561 36.997,260.066 37.608 C 259.025 38.894,259.116 38.883,248.708 38.958 L 239.500 39.025 239.500 42.429 L 239.500 45.833 247.821 45.833 C 258.005 45.833,259.087 45.948,260.327 47.160 C 261.500 48.307,261.660 51.056,260.613 52.072 C 258.788 53.842,257.571 54.000,245.778 54.000 L 236.333 54.000 236.333 42.750 L 236.333 31.500 245.375 31.506 C 251.743 31.510,254.964 31.576,256.269 31.730 M76.740 32.497 C 83.286 33.569,85.927 41.616,81.320 46.450 L 80.598 47.207 80.335 45.978 C 79.992 44.384,79.316 43.151,78.120 41.940 L 77.156 40.963 77.896 40.172 C 78.905 39.093,79.401 38.105,79.160 37.654 C 78.860 37.093,78.331 37.329,77.640 38.333 C 77.292 38.837,76.800 39.432,76.546 39.654 L 76.083 40.058 75.974 38.570 C 75.818 36.454,75.192 34.860,73.915 33.332 C 73.085 32.338,74.040 32.055,76.740 32.497 M63.342 35.289 C 65.923 38.177,64.628 44.642,61.000 46.987 C 57.745 49.091,53.389 47.233,52.355 43.298 C 52.021 42.029,51.906 41.833,51.496 41.833 C 50.640 41.833,50.836 43.984,51.836 45.560 L 52.306 46.301 51.944 46.631 C 48.899 49.413,43.798 45.027,46.709 42.130 C 47.143 41.697,47.646 41.101,47.827 40.804 L 48.154 40.266 49.659 40.313 C 52.488 40.403,54.873 39.060,56.070 36.703 C 56.391 36.069,56.493 36.102,57.140 37.050 C 57.827 38.056,58.210 39.365,58.320 41.083 C 58.423 42.683,58.734 43.067,59.448 42.474 C 59.794 42.186,59.662 39.626,59.229 38.254 L 58.930 37.303 59.423 36.362 C 60.353 34.589,62.252 34.069,63.342 35.289 M27.507 36.258 C 28.645 37.432,30.288 38.126,32.208 38.243 C 33.177 38.303,33.262 38.340,33.418 38.779 C 33.510 39.038,33.717 39.505,33.876 39.817 C 34.036 40.129,34.167 40.403,34.167 40.426 C 34.167 40.449,33.844 40.658,33.449 40.889 C 32.449 41.475,31.398 42.668,30.839 43.850 C 30.482 44.603,30.177 44.975,29.600 45.357 C 29.179 45.636,28.679 46.082,28.489 46.349 C 28.016 47.013,27.818 46.967,26.788 45.958 C 24.257 43.480,24.007 38.528,26.293 36.125 C 26.840 35.550,26.820 35.548,27.507 36.258 M35.808 42.351 C 37.864 44.164,40.892 44.825,43.470 44.022 L 44.469 43.711 44.577 44.481 C 44.738 45.621,45.422 46.903,46.267 47.646 L 47.015 48.305 46.966 49.611 L 46.917 50.917 45.624 50.886 C 44.512 50.860,44.152 50.770,43.057 50.243 C 41.886 49.679,41.771 49.654,41.620 49.923 C 40.493 51.937,37.110 52.871,34.809 51.804 C 30.909 49.995,30.402 44.631,33.903 42.218 C 34.903 41.529,34.874 41.527,35.808 42.351 M76.752 42.502 C 81.121 45.973,78.958 53.034,73.398 53.455 L 72.167 53.548 72.167 52.888 C 72.167 51.351,71.452 50.004,70.775 50.263 C 70.361 50.422,70.310 50.843,70.598 51.710 C 71.467 54.327,69.664 57.063,66.915 57.297 C 64.418 57.509,62.333 55.590,62.333 53.078 L 62.333 52.055 63.796 51.189 C 64.601 50.712,65.840 49.836,66.550 49.241 C 67.650 48.319,67.992 48.128,68.878 47.941 C 71.618 47.362,74.347 45.136,75.266 42.732 C 75.602 41.852,75.880 41.809,76.752 42.502 M30.360 48.333 C 30.980 50.815,33.746 53.489,35.705 53.503 C 36.530 53.508,36.570 53.778,35.812 54.221 C 30.996 57.032,26.060 51.399,29.619 47.153 L 30.083 46.599 30.128 47.091 C 30.153 47.362,30.257 47.921,30.360 48.333 M54.083 47.927 C 56.588 49.770,59.753 49.728,62.177 47.822 L 62.772 47.354 64.223 47.807 L 65.674 48.259 64.879 48.863 C 62.087 50.982,60.000 51.731,56.830 51.751 C 54.281 51.767,54.000 51.826,54.000 52.337 C 54.000 53.098,57.182 53.451,59.385 52.933 C 61.015 52.550,60.938 52.507,61.052 53.869 C 61.171 55.282,61.107 55.388,59.699 56.129 C 54.572 58.827,48.333 55.224,48.333 49.564 L 48.333 48.865 49.292 48.885 C 50.553 48.911,51.580 48.605,52.500 47.928 C 52.913 47.625,53.325 47.418,53.417 47.468 C 53.508 47.519,53.808 47.725,54.083 47.927 M43.917 52.000 C 44.788 52.264,45.385 52.337,46.274 52.287 L 47.464 52.219 47.677 52.865 C 47.794 53.220,48.134 53.880,48.431 54.332 L 48.972 55.153 48.327 55.736 C 45.555 58.240,41.364 58.060,38.756 55.325 C 37.794 54.317,37.737 53.500,38.627 53.500 C 39.076 53.500,41.236 52.376,41.665 51.919 C 42.117 51.438,42.059 51.436,43.917 52.000 " stroke="none" fill="#fafafa" fill-rule="evenodd"></path><path id="path1" d="M49.653 0.068 C 49.615 0.105,48.836 0.225,47.922 0.333 C 45.620 0.607,39.969 2.117,39.252 2.650 C 39.159 2.719,38.722 2.909,38.281 3.072 C 37.840 3.235,36.978 3.634,36.365 3.959 C 35.752 4.284,35.025 4.663,34.750 4.802 C 34.064 5.150,31.673 6.724,31.183 7.151 C 30.963 7.343,30.733 7.500,30.673 7.500 C 30.612 7.500,30.417 7.631,30.238 7.792 C 30.059 7.952,29.539 8.380,29.082 8.743 C 28.027 9.579,24.898 12.707,24.245 13.578 C 23.973 13.941,23.637 14.361,23.500 14.511 C 22.058 16.081,19.327 20.750,18.341 23.333 C 18.148 23.837,17.921 24.400,17.835 24.583 C 14.976 30.684,14.646 41.537,17.082 49.333 C 17.325 50.112,17.566 50.920,17.616 51.127 C 17.666 51.335,17.773 51.546,17.853 51.596 C 17.934 51.646,18.000 51.799,18.000 51.936 C 18.000 52.291,18.892 54.214,20.425 57.167 C 20.815 57.918,22.598 60.597,23.154 61.267 C 23.390 61.551,23.846 62.113,24.167 62.516 C 26.587 65.554,31.105 69.308,34.583 71.170 C 35.317 71.563,36.004 71.952,36.111 72.034 C 36.246 72.139,36.326 73.348,36.371 75.968 C 36.435 79.701,36.688 81.333,37.203 81.333 C 37.275 81.333,37.333 81.434,37.333 81.558 C 37.333 82.537,40.755 84.730,42.783 85.049 L 43.948 85.232 44.238 86.323 C 45.808 92.214,52.494 95.157,57.990 92.375 C 59.943 91.387,62.190 88.640,62.591 86.750 C 62.903 85.275,62.950 85.216,63.881 85.099 C 66.373 84.787,68.817 83.123,69.952 80.964 C 70.414 80.085,70.415 80.074,70.471 76.204 L 70.527 72.325 71.380 71.893 C 72.271 71.442,74.856 69.862,75.000 69.680 C 75.046 69.623,75.306 69.433,75.579 69.260 C 75.852 69.086,76.152 68.884,76.246 68.811 C 83.045 63.533,87.449 57.330,90.016 49.417 C 90.774 47.078,90.996 46.124,91.524 42.917 C 91.807 41.198,91.810 34.679,91.529 33.083 C 90.631 27.995,89.659 24.832,87.866 21.167 C 86.911 19.212,84.686 15.617,84.153 15.167 C 84.099 15.121,83.986 14.958,83.902 14.806 C 83.144 13.423,79.229 9.579,76.565 7.601 C 75.750 6.996,75.005 6.437,74.910 6.360 C 74.122 5.718,69.957 3.519,67.917 2.666 C 65.370 1.602,61.992 0.717,58.679 0.247 C 57.104 0.023,49.846 -0.121,49.653 0.068 M11.518 3.899 C 10.576 4.422,10.361 5.904,11.125 6.613 C 11.517 6.976,12.958 7.882,14.926 9.002 C 15.206 9.161,16.050 9.648,16.800 10.084 C 18.730 11.206,20.074 11.010,20.439 9.553 C 20.738 8.363,20.157 7.800,16.667 5.901 C 16.346 5.726,16.058 5.527,16.028 5.458 C 15.997 5.390,15.909 5.333,15.831 5.333 C 15.753 5.333,15.072 4.958,14.317 4.500 C 12.879 3.627,12.253 3.492,11.518 3.899 M59.167 3.973 C 59.579 4.076,60.704 4.351,61.667 4.584 C 63.197 4.954,65.210 5.575,66.250 5.997 C 68.536 6.925,71.381 8.429,72.833 9.476 C 77.316 12.709,79.952 15.414,82.696 19.601 C 90.705 31.820,89.694 48.448,80.251 59.819 C 78.662 61.732,77.445 62.970,75.730 64.417 C 74.069 65.818,73.914 65.940,73.386 66.277 C 73.128 66.441,72.879 66.618,72.833 66.670 C 72.600 66.936,70.223 68.319,68.634 69.114 L 66.833 70.016 66.833 74.444 C 66.833 81.826,67.307 81.561,54.000 81.634 C 42.973 81.695,42.445 81.634,40.927 80.109 C 40.028 79.206,40.000 79.025,40.000 74.196 L 40.000 69.742 38.375 68.937 C 36.955 68.234,34.231 66.680,33.750 66.298 C 33.658 66.226,32.908 65.640,32.083 64.996 C 29.461 62.950,26.336 59.603,25.004 57.413 C 24.782 57.048,24.554 56.712,24.497 56.667 C 24.439 56.621,24.341 56.471,24.278 56.333 C 24.216 56.196,23.977 55.783,23.748 55.417 C 23.128 54.425,21.544 51.152,21.407 50.581 C 21.341 50.307,21.234 50.008,21.168 49.917 C 21.102 49.825,21.005 49.600,20.952 49.417 C 20.899 49.233,20.735 48.671,20.587 48.167 C 19.801 45.490,19.656 44.759,19.250 41.417 C 18.503 35.275,19.825 28.296,22.847 22.417 C 23.653 20.848,24.359 19.602,24.498 19.500 C 24.561 19.454,24.876 19.004,25.199 18.500 C 26.277 16.819,28.613 14.145,30.373 12.578 C 31.862 11.252,33.647 9.833,33.825 9.833 C 33.887 9.833,34.083 9.701,34.260 9.539 C 35.426 8.478,39.887 6.256,42.833 5.271 C 44.265 4.792,48.102 3.926,49.500 3.767 C 50.722 3.628,58.444 3.792,59.167 3.973 M92.167 4.737 C 91.204 5.331,90.323 5.820,90.208 5.825 C 90.094 5.829,90.000 5.908,90.000 6.000 C 90.000 6.092,89.923 6.167,89.829 6.167 C 89.735 6.167,89.183 6.467,88.603 6.833 C 88.022 7.200,87.489 7.500,87.418 7.500 C 87.020 7.500,86.500 8.458,86.500 9.194 C 86.500 10.900,88.141 11.326,90.034 10.110 C 90.556 9.775,91.027 9.500,91.079 9.500 C 91.132 9.500,91.642 9.213,92.212 8.861 C 92.783 8.510,93.795 7.906,94.460 7.519 C 95.952 6.653,96.239 6.257,96.123 5.228 C 95.913 3.366,94.646 3.208,92.167 4.737 M3.552 18.992 C 2.349 19.726,2.347 21.381,3.550 22.028 C 3.915 22.224,4.128 22.276,6.500 22.750 C 7.188 22.887,8.050 23.066,8.417 23.146 C 11.656 23.860,11.623 23.856,12.249 23.595 C 14.033 22.849,13.480 20.566,11.417 20.163 C 10.867 20.056,10.117 19.900,9.750 19.817 C 9.383 19.734,8.521 19.556,7.833 19.421 C 7.146 19.286,6.058 19.061,5.417 18.921 C 3.996 18.611,4.188 18.604,3.552 18.992 M101.972 18.750 C 101.891 18.831,101.506 18.918,99.000 19.417 C 98.313 19.554,97.450 19.734,97.083 19.816 C 96.717 19.899,96.021 20.047,95.537 20.146 C 93.523 20.559,92.846 22.036,94.097 23.288 C 94.717 23.908,95.002 23.898,98.417 23.146 C 98.783 23.066,99.646 22.887,100.333 22.750 C 104.008 22.016,104.169 21.920,104.164 20.469 C 104.160 19.352,102.597 18.126,101.972 18.750 M8.303 34.753 C 8.256 34.800,7.175 34.950,5.900 35.086 C 0.165 35.698,0.016 35.756,0.005 37.382 C -0.000 38.226,0.229 38.603,0.989 39.000 C 1.400 39.214,1.577 39.200,5.250 38.664 C 5.800 38.583,6.886 38.465,7.664 38.401 C 10.242 38.187,11.217 37.223,10.484 35.614 C 10.207 35.006,8.661 34.395,8.303 34.753 M97.038 34.991 C 96.019 35.630,95.921 37.064,96.846 37.802 C 97.244 38.120,97.704 38.230,99.456 38.427 C 101.668 38.675,103.375 38.892,104.680 39.089 C 106.776 39.406,107.918 36.822,106.097 35.881 C 105.597 35.622,105.185 35.556,101.167 35.092 C 100.021 34.960,98.746 34.806,98.333 34.750 C 97.744 34.670,97.467 34.722,97.038 34.991 M10.667 49.285 C 10.363 49.386,8.294 50.363,5.526 51.711 C 3.054 52.916,2.833 53.120,2.833 54.206 C 2.833 55.313,3.338 55.833,4.412 55.833 C 5.172 55.833,5.221 55.812,11.107 52.976 C 12.639 52.237,13.119 51.425,12.688 50.300 C 12.425 49.616,11.327 49.064,10.667 49.285 M95.049 49.428 C 93.445 50.130,93.848 52.077,95.788 52.997 C 98.430 54.250,100.133 55.070,100.856 55.439 C 103.187 56.629,105.204 54.810,103.607 52.958 C 103.389 52.706,103.154 52.500,103.085 52.500 C 103.015 52.500,101.636 51.854,100.021 51.065 C 97.301 49.737,95.945 49.147,95.687 49.180 C 95.630 49.188,95.343 49.299,95.049 49.428 " stroke="none" fill="#f47444" fill-rule="evenodd"></path><path id="path2" d="M50.809 17.219 C 48.960 17.850,47.174 19.301,46.286 20.896 C 45.724 21.906,45.720 21.844,46.385 22.810 C 46.689 23.252,47.039 23.869,47.164 24.181 C 47.289 24.494,47.410 24.776,47.434 24.808 C 47.458 24.841,47.727 24.678,48.031 24.447 C 48.944 23.752,50.300 23.305,51.788 23.209 L 53.160 23.120 52.663 22.554 C 51.974 21.769,52.140 21.000,52.999 21.000 C 53.351 21.000,54.706 22.477,55.084 23.275 C 55.223 23.568,55.590 23.965,55.900 24.156 L 56.463 24.504 57.273 24.139 C 57.938 23.840,58.406 23.772,59.882 23.762 L 61.681 23.750 61.580 23.347 C 60.379 18.541,55.340 15.675,50.809 17.219 M64.250 20.514 C 62.425 21.153,62.358 21.221,62.739 22.058 C 62.870 22.347,63.062 23.011,63.165 23.534 C 63.305 24.240,63.439 24.511,63.688 24.590 C 64.755 24.929,66.224 26.929,66.927 29.000 C 67.098 29.504,67.249 29.938,67.264 29.964 C 67.278 29.990,67.764 30.088,68.344 30.181 C 68.925 30.275,69.946 30.579,70.614 30.857 L 71.828 31.362 72.699 31.073 C 73.852 30.690,75.898 30.712,77.466 31.125 C 78.840 31.486,78.796 31.513,79.009 30.191 C 79.553 26.813,76.933 23.667,73.577 23.667 L 72.405 23.667 72.410 25.042 C 72.420 27.598,71.647 28.994,70.662 28.196 L 70.287 27.893 70.644 26.940 C 72.013 23.279,67.968 19.213,64.250 20.514 M39.180 21.588 C 37.626 22.023,36.113 23.291,35.556 24.624 L 35.303 25.228 35.985 25.795 C 37.273 26.865,36.594 28.097,35.271 27.088 C 31.325 24.078,25.702 27.248,26.670 31.938 C 27.216 34.583,29.330 36.539,31.900 36.779 L 32.949 36.877 33.043 35.647 C 33.278 32.583,35.358 29.808,38.296 28.642 C 39.539 28.148,42.691 28.095,43.729 28.550 C 44.628 28.945,44.736 28.916,44.990 28.214 C 45.114 27.873,45.428 27.247,45.689 26.822 C 47.301 24.203,42.792 20.578,39.180 21.588 M50.216 25.002 C 49.471 25.246,48.935 25.573,48.299 26.171 C 47.599 26.829,47.508 26.968,47.859 26.844 C 52.244 25.290,57.603 29.565,56.892 34.049 C 56.774 34.794,57.902 35.972,58.201 35.417 C 59.855 32.349,64.263 32.589,65.324 35.805 L 65.536 36.448 66.740 36.370 C 68.484 36.258,70.167 37.032,70.167 37.946 C 70.167 38.598,69.490 38.791,68.768 38.345 C 67.200 37.375,65.914 37.566,66.091 38.741 C 66.361 40.544,65.646 43.584,64.545 45.315 C 63.877 46.367,63.894 46.391,65.529 46.683 C 67.880 47.103,70.487 46.236,72.377 44.405 C 77.217 39.716,73.618 31.500,66.723 31.500 C 66.198 31.500,66.000 31.433,66.000 31.255 C 66.000 30.803,65.162 28.438,64.761 27.757 C 63.345 25.358,59.949 24.457,57.362 25.796 L 56.308 26.341 55.813 25.925 C 54.441 24.771,52.101 24.385,50.216 25.002 M182.722 24.842 C 181.722 25.145,181.479 25.667,180.267 30.096 C 179.643 32.381,178.464 36.688,177.648 39.667 C 176.832 42.646,175.631 47.033,174.980 49.417 C 174.329 51.800,173.692 54.125,173.564 54.583 C 173.436 55.042,173.066 56.392,172.742 57.583 C 172.418 58.775,172.113 59.881,172.065 60.042 C 171.985 60.310,172.169 60.333,174.364 60.333 L 176.751 60.333 177.646 57.042 C 178.896 52.446,180.284 47.356,181.723 42.083 C 182.399 39.608,183.195 36.683,183.491 35.583 C 183.787 34.483,184.086 33.523,184.156 33.450 C 184.268 33.332,186.833 39.105,192.286 51.750 C 193.235 53.950,194.113 55.975,194.238 56.250 C 194.362 56.525,194.744 57.406,195.085 58.208 C 195.985 60.321,196.988 61.060,198.558 60.766 C 199.944 60.506,199.297 61.814,208.510 40.636 C 210.292 36.541,211.796 33.278,211.852 33.386 C 211.908 33.495,212.912 37.108,214.082 41.417 C 215.251 45.725,216.639 50.825,217.166 52.750 C 217.692 54.675,218.369 57.169,218.670 58.292 L 219.218 60.333 221.612 60.333 L 224.006 60.333 223.900 59.875 C 223.800 59.443,223.119 56.927,220.596 47.667 C 219.236 42.674,217.357 35.766,216.313 31.917 C 214.764 26.204,214.720 26.072,214.147 25.420 C 213.319 24.476,211.709 24.493,210.798 25.456 C 210.525 25.744,208.105 31.102,204.324 39.792 C 201.004 47.423,198.233 53.667,198.168 53.667 C 198.103 53.667,197.242 51.810,196.255 49.542 C 191.162 37.833,187.592 29.653,187.217 28.833 C 186.986 28.329,186.652 27.548,186.474 27.097 C 185.710 25.166,184.350 24.349,182.722 24.842 M292.048 24.938 C 291.295 25.310,291.298 25.304,285.582 34.833 C 282.750 39.554,278.161 47.195,275.383 51.813 C 272.606 56.431,270.333 60.238,270.333 60.272 C 270.333 60.306,271.567 60.333,273.074 60.333 L 275.815 60.333 278.233 56.270 C 282.152 49.683,290.287 35.935,291.706 33.500 C 292.781 31.654,292.834 31.592,293.089 31.867 C 293.200 31.986,295.073 35.083,297.251 38.750 C 299.430 42.417,301.460 45.829,301.762 46.333 L 302.312 47.250 296.287 47.333 L 290.262 47.417 289.220 49.167 C 288.646 50.129,288.175 50.973,288.172 51.042 C 288.169 51.110,291.870 51.167,296.396 51.167 L 304.626 51.167 307.355 55.747 L 310.083 60.327 313.042 60.330 C 314.669 60.332,316.000 60.303,316.000 60.267 C 316.000 60.230,314.379 57.511,312.397 54.225 C 308.030 46.984,300.221 34.022,297.378 29.298 C 294.537 24.577,293.876 24.037,292.048 24.938 M123.750 25.271 C 123.567 25.307,123.004 25.417,122.500 25.516 C 113.889 27.199,112.445 39.790,120.456 43.334 C 122.544 44.257,122.116 44.225,133.583 44.337 C 143.354 44.432,144.320 44.467,145.083 44.746 C 149.871 46.501,149.833 53.095,145.024 55.036 L 144.083 55.415 129.875 55.466 L 115.667 55.517 115.667 57.932 L 115.667 60.347 130.458 60.291 C 146.897 60.228,145.815 60.302,148.310 59.070 C 154.670 55.928,154.892 44.677,148.652 41.699 C 146.361 40.606,146.493 40.617,134.750 40.512 L 124.083 40.417 123.212 40.023 C 119.159 38.190,119.512 31.637,123.735 30.313 C 124.259 30.149,127.522 30.087,137.875 30.044 L 151.333 29.989 151.333 27.578 L 151.333 25.167 137.708 25.186 C 130.215 25.197,123.933 25.235,123.750 25.271 M160.667 42.750 L 160.667 60.333 163.083 60.333 L 165.500 60.333 165.500 42.750 L 165.500 25.167 163.083 25.167 L 160.667 25.167 160.667 42.750 M230.000 42.750 L 230.000 60.347 244.708 60.293 L 259.417 60.239 260.665 59.858 C 265.271 58.451,267.825 55.007,267.861 50.155 C 267.893 45.942,266.065 43.497,261.884 42.157 C 260.481 41.708,260.480 41.643,261.870 41.254 C 268.731 39.335,269.335 29.712,262.795 26.513 C 260.144 25.217,260.815 25.265,244.542 25.206 L 230.000 25.153 230.000 42.750 M310.188 25.453 C 310.486 25.826,321.510 38.720,325.447 43.302 L 328.500 46.853 328.500 53.593 L 328.500 60.333 331.000 60.333 L 333.500 60.333 333.500 53.568 L 333.500 46.803 342.458 36.386 C 347.385 30.656,351.554 25.788,351.722 25.568 L 352.028 25.167 348.948 25.167 L 345.867 25.167 343.225 28.275 C 341.772 29.984,340.358 31.656,340.083 31.990 C 337.383 35.270,331.269 42.338,331.166 42.300 C 331.093 42.272,329.255 40.150,327.081 37.583 C 324.908 35.017,322.367 32.017,321.435 30.917 C 320.502 29.817,319.030 28.075,318.162 27.047 L 316.583 25.177 313.271 25.172 C 310.163 25.167,309.973 25.184,310.188 25.453 M357.717 36.625 C 357.792 48.853,357.809 49.115,358.665 51.667 C 360.772 57.943,366.467 60.829,376.750 60.830 C 388.162 60.832,393.729 57.469,395.455 49.531 C 395.697 48.419,395.741 46.723,395.792 36.708 L 395.850 25.167 393.425 25.167 L 391.000 25.167 391.000 36.156 C 391.000 49.700,390.873 50.526,388.423 52.918 C 384.066 57.171,369.853 57.178,365.582 52.929 C 362.924 50.285,362.838 49.754,362.836 35.958 L 362.833 25.167 360.240 25.167 L 357.646 25.167 357.717 36.625 M48.833 28.149 C 47.476 28.453,45.518 29.822,45.254 30.653 C 45.174 30.905,45.025 30.869,43.968 30.344 C 37.409 27.089,31.260 35.777,36.447 40.968 C 39.144 43.667,43.263 43.602,45.918 40.818 C 46.987 39.697,46.989 39.688,46.324 38.652 C 44.919 36.463,43.152 35.567,40.909 35.907 C 39.433 36.130,39.109 34.875,40.543 34.488 C 43.042 33.812,46.350 35.452,47.750 38.060 C 48.547 39.546,52.012 39.155,53.788 37.379 C 57.572 33.595,54.026 26.989,48.833 28.149 M257.813 30.326 C 261.003 31.027,262.258 32.590,262.141 35.716 C 262.040 38.414,261.046 39.639,258.467 40.248 C 257.613 40.449,255.879 40.496,249.208 40.498 L 241.000 40.500 241.000 42.403 L 241.000 44.305 249.708 44.372 C 259.312 44.447,259.462 44.463,260.906 45.564 C 263.338 47.419,263.555 51.688,261.313 53.575 C 259.190 55.361,258.750 55.414,245.917 55.415 L 234.917 55.417 234.874 42.917 C 234.850 36.042,234.869 30.316,234.916 30.194 C 235.030 29.895,256.412 30.018,257.813 30.326 M73.958 32.453 C 73.382 32.540,73.383 32.550,74.064 33.389 C 75.272 34.877,76.159 37.276,76.164 39.071 L 76.167 39.891 76.606 39.487 C 76.848 39.265,77.303 38.685,77.617 38.198 C 78.096 37.459,78.260 37.322,78.620 37.365 C 79.664 37.490,79.416 38.615,77.987 40.230 L 77.267 41.043 77.894 41.546 C 79.116 42.526,80.214 44.520,80.430 46.150 C 80.570 47.204,80.630 47.203,81.562 46.138 C 86.566 40.418,81.505 31.309,73.958 32.453 M60.908 34.826 C 59.765 35.289,58.889 37.046,59.259 38.134 C 59.870 39.935,59.894 42.366,59.304 42.682 C 58.991 42.850,58.345 42.750,58.321 42.530 C 58.314 42.468,58.285 41.817,58.257 41.083 C 58.193 39.439,57.672 37.804,56.927 36.917 L 56.378 36.263 56.085 36.830 C 54.904 39.114,51.985 40.673,49.310 40.449 C 48.681 40.396,48.167 40.414,48.167 40.489 C 48.167 40.565,47.669 41.163,47.061 41.820 L 45.956 43.014 46.043 44.110 C 46.282 47.078,49.561 48.489,51.871 46.619 C 52.139 46.402,52.119 46.308,51.574 45.216 C 50.618 43.300,50.617 41.833,51.570 41.833 C 52.055 41.833,52.333 42.138,52.333 42.670 C 52.333 44.314,54.331 46.771,56.250 47.489 C 60.334 49.017,64.537 45.063,64.564 39.667 C 64.581 36.200,62.926 34.009,60.908 34.826 M26.312 36.292 C 23.850 38.994,24.476 44.347,27.505 46.504 L 27.988 46.848 28.601 46.169 C 28.938 45.796,29.435 45.362,29.706 45.204 C 30.005 45.030,30.398 44.522,30.703 43.917 C 31.380 42.570,32.171 41.629,33.170 40.982 C 34.100 40.379,34.090 40.400,33.760 39.734 C 33.628 39.468,33.443 39.044,33.348 38.792 C 33.193 38.381,33.093 38.333,32.379 38.329 C 30.716 38.321,28.881 37.607,27.583 36.465 C 26.728 35.712,26.827 35.726,26.312 36.292 M34.154 42.139 C 30.405 44.516,30.991 50.274,35.142 51.845 C 37.217 52.630,39.412 52.131,41.000 50.513 L 41.917 49.578 43.044 50.152 C 43.991 50.635,44.391 50.738,45.552 50.799 L 46.934 50.872 46.922 49.603 L 46.910 48.334 46.143 47.625 C 45.219 46.771,44.683 45.767,44.549 44.642 C 44.460 43.887,44.417 43.818,44.100 43.921 C 40.964 44.937,37.856 44.354,35.677 42.343 C 35.274 41.971,34.934 41.667,34.922 41.667 C 34.909 41.667,34.564 41.879,34.154 42.139 M75.107 43.235 C 73.987 45.502,71.290 47.575,68.884 48.020 C 68.108 48.164,67.725 48.369,66.761 49.158 C 65.358 50.306,64.203 51.099,63.106 51.667 L 62.301 52.083 62.376 53.167 C 62.627 56.827,66.671 58.555,69.393 56.165 C 70.557 55.143,70.971 53.310,70.465 51.418 C 70.223 50.514,70.512 50.050,71.207 50.224 C 71.731 50.356,72.018 51.002,72.126 52.294 C 72.229 53.537,72.418 53.644,73.945 53.328 C 79.174 52.247,80.842 45.544,76.640 42.500 C 75.739 41.847,75.810 41.813,75.107 43.235 M29.523 47.363 C 27.074 50.382,29.272 54.929,33.167 54.898 C 35.034 54.883,37.073 53.821,35.685 53.586 C 33.084 53.147,30.838 50.866,30.253 48.070 C 29.974 46.734,30.007 46.766,29.523 47.363 M52.760 47.823 C 52.177 48.467,50.990 48.886,49.707 48.902 C 48.283 48.919,48.223 48.996,48.492 50.452 C 49.547 56.155,55.375 58.779,60.222 55.734 C 61.032 55.226,61.177 55.064,61.091 54.770 C 61.034 54.576,60.942 54.019,60.886 53.533 C 60.807 52.841,60.731 52.670,60.535 52.745 C 58.125 53.670,54.000 53.349,54.000 52.235 C 54.000 51.627,54.434 51.506,55.870 51.713 C 58.367 52.073,61.544 51.125,64.240 49.216 L 65.564 48.279 64.490 47.963 C 62.716 47.441,62.761 47.442,62.210 47.906 C 60.025 49.745,56.301 49.747,53.893 47.910 C 53.245 47.416,53.136 47.407,52.760 47.823 M42.070 51.688 C 41.862 52.025,39.942 53.171,39.263 53.364 C 37.883 53.757,37.738 54.133,38.585 55.123 C 40.981 57.923,45.352 58.143,48.409 55.618 L 48.901 55.211 48.584 54.730 C 48.133 54.047,47.502 52.784,47.501 52.563 C 47.500 52.442,46.872 52.348,45.708 52.294 C 44.422 52.236,43.672 52.114,43.048 51.861 C 42.465 51.625,42.144 51.569,42.070 51.688 M51.167 69.414 L 51.167 81.667 53.000 81.667 L 54.833 81.667 54.833 70.087 L 54.833 58.506 54.375 58.405 C 53.468 58.204,52.736 57.948,51.958 57.558 L 51.167 57.161 51.167 69.414 M156.964 72.958 C 156.349 73.664,156.333 73.867,156.333 81.406 L 156.333 88.833 157.750 88.833 L 159.167 88.833 159.169 83.125 L 159.172 77.417 164.794 83.113 C 170.585 88.979,170.781 89.141,171.878 88.935 C 172.929 88.738,172.912 88.873,172.965 80.375 L 173.013 72.667 171.506 72.667 L 170.000 72.667 170.000 78.250 C 170.000 81.321,169.966 83.833,169.924 83.833 C 169.882 83.833,167.723 81.715,165.125 79.125 C 158.566 72.585,158.658 72.667,157.869 72.667 C 157.457 72.667,157.125 72.774,156.964 72.958 M337.941 73.075 L 337.500 73.484 337.500 81.159 L 337.500 88.833 338.917 88.833 L 340.333 88.833 340.333 83.250 C 340.333 80.179,340.370 77.667,340.415 77.667 C 340.461 77.667,342.995 80.187,346.047 83.267 C 352.284 89.560,352.481 89.700,353.571 88.611 L 354.000 88.182 354.000 80.424 L 354.000 72.667 352.586 72.667 L 351.171 72.667 351.127 78.320 L 351.083 83.974 345.386 78.320 C 339.038 72.020,339.061 72.037,337.941 73.075 M114.500 80.833 L 114.500 88.833 121.077 88.833 C 128.722 88.833,129.015 88.791,130.351 87.500 C 132.307 85.609,132.291 82.271,130.319 80.842 C 129.648 80.356,129.648 80.355,130.032 80.152 C 132.172 79.017,131.946 75.039,129.662 73.633 C 128.554 72.951,127.285 72.840,120.542 72.837 L 114.500 72.833 114.500 80.833 M134.167 80.833 L 134.167 88.833 141.333 88.833 L 148.500 88.833 148.500 87.333 L 148.500 85.833 142.750 85.833 L 137.000 85.833 137.000 80.833 L 137.000 75.833 142.750 75.833 L 148.500 75.833 148.500 74.333 L 148.500 72.833 141.333 72.833 L 134.167 72.833 134.167 80.833 M150.667 80.833 L 150.667 88.833 152.167 88.833 L 153.667 88.833 153.667 80.833 L 153.667 72.833 152.167 72.833 L 150.667 72.833 150.667 80.833 M180.961 73.014 C 174.952 73.894,172.794 81.887,177.274 86.667 C 179.059 88.572,180.200 88.829,186.875 88.832 L 192.333 88.833 192.333 84.167 L 192.333 79.500 187.250 79.500 L 182.167 79.500 182.167 80.750 L 182.167 82.000 185.750 82.000 L 189.333 82.000 189.333 83.917 L 189.333 85.833 185.490 85.833 C 181.723 85.833,181.628 85.825,180.754 85.412 C 177.005 83.638,176.890 78.248,180.561 76.285 C 181.221 75.932,181.461 75.914,186.292 75.864 L 191.333 75.811 191.333 74.322 L 191.333 72.833 186.625 72.854 C 184.035 72.865,181.486 72.937,180.961 73.014 M200.333 74.333 L 200.333 75.833 203.250 75.833 L 206.167 75.833 206.167 82.333 L 206.167 88.833 207.667 88.833 L 209.167 88.833 209.167 82.333 L 209.167 75.833 212.167 75.833 L 215.167 75.833 215.167 74.333 L 215.167 72.833 207.750 72.833 L 200.333 72.833 200.333 74.333 M216.833 80.833 L 216.833 88.833 218.333 88.833 L 219.833 88.833 219.833 80.833 L 219.833 72.833 218.333 72.833 L 216.833 72.833 216.833 80.833 M229.500 76.083 L 229.500 79.333 225.500 79.333 L 221.500 79.333 221.500 80.667 L 221.500 82.000 225.500 82.000 L 229.500 82.000 229.500 85.417 L 229.500 88.833 231.000 88.833 L 232.500 88.833 232.500 80.833 L 232.500 72.833 231.000 72.833 L 229.500 72.833 229.500 76.083 M235.000 80.833 L 235.000 88.833 242.167 88.833 L 249.333 88.833 249.333 87.333 L 249.333 85.833 243.667 85.833 L 238.000 85.833 238.000 80.833 L 238.000 75.833 243.667 75.833 L 249.333 75.833 249.333 74.333 L 249.333 72.833 242.167 72.833 L 235.000 72.833 235.000 80.833 M258.000 80.833 L 258.000 88.833 265.167 88.833 L 272.333 88.833 272.333 87.333 L 272.333 85.833 266.667 85.833 L 261.000 85.833 261.000 80.833 L 261.000 75.833 266.667 75.833 L 272.333 75.833 272.333 74.333 L 272.333 72.833 265.167 72.833 L 258.000 72.833 258.000 80.833 M273.561 73.203 C 273.695 73.412,273.979 73.890,274.194 74.264 C 275.597 76.713,282.530 88.153,282.797 88.460 C 283.271 89.004,284.047 89.241,284.530 88.990 C 284.943 88.774,285.500 88.249,285.500 88.075 C 285.500 88.017,286.100 87.004,286.833 85.823 C 287.567 84.643,288.167 83.641,288.167 83.597 C 288.167 83.554,288.717 82.633,289.390 81.551 C 291.190 78.655,294.301 73.444,294.429 73.110 C 294.531 72.846,294.395 72.825,292.832 72.869 L 291.123 72.917 290.130 74.583 C 289.583 75.500,288.806 76.796,288.401 77.463 C 287.997 78.130,287.667 78.713,287.667 78.759 C 287.667 78.804,287.367 79.317,287.000 79.897 C 286.633 80.478,286.333 81.038,286.333 81.143 C 286.333 81.248,286.258 81.333,286.167 81.333 C 286.075 81.333,286.000 81.412,286.000 81.508 C 286.000 81.604,285.737 82.093,285.417 82.595 C 285.096 83.096,284.833 83.552,284.833 83.609 C 284.833 83.665,284.676 83.966,284.483 84.278 L 284.132 84.845 283.650 84.083 C 283.384 83.664,283.167 83.249,283.167 83.161 C 283.167 83.072,283.092 83.000,283.000 83.000 C 282.908 83.000,282.833 82.914,282.833 82.810 C 282.833 82.705,282.533 82.144,282.167 81.564 C 281.800 80.983,281.500 80.431,281.500 80.337 C 281.500 80.244,281.441 80.167,281.370 80.167 C 281.298 80.167,281.152 79.960,281.044 79.708 C 280.937 79.456,280.000 77.825,278.963 76.083 L 277.078 72.917 275.198 72.869 L 273.318 72.822 273.561 73.203 M296.167 80.833 L 296.167 88.833 297.667 88.833 L 299.167 88.833 299.167 80.833 L 299.167 72.833 297.667 72.833 L 296.167 72.833 296.167 80.833 M301.833 80.833 L 301.833 88.833 307.003 88.833 C 313.325 88.833,314.218 88.647,316.332 86.888 C 316.700 86.582,318.000 84.780,318.000 84.576 C 318.000 84.516,318.108 84.231,318.239 83.942 C 319.354 81.495,318.906 77.754,317.250 75.685 C 315.260 73.198,313.931 72.842,306.625 72.837 L 301.833 72.833 301.833 80.833 M321.000 80.833 L 321.000 88.833 328.167 88.833 L 335.333 88.833 335.333 87.333 L 335.333 85.833 329.583 85.833 L 323.833 85.833 323.833 80.833 L 323.833 75.833 329.583 75.833 L 335.333 75.833 335.333 74.333 L 335.333 72.833 328.167 72.833 L 321.000 72.833 321.000 80.833 M362.088 73.019 C 359.888 73.339,357.750 74.897,356.794 76.876 C 355.190 80.195,356.134 85.005,358.802 87.113 C 360.800 88.691,361.527 88.833,367.597 88.833 L 372.500 88.833 372.500 87.333 L 372.500 85.833 367.566 85.833 L 362.632 85.833 361.780 85.406 C 357.961 83.487,358.132 77.541,362.047 76.165 C 362.906 75.864,363.425 75.833,367.746 75.833 L 372.500 75.833 372.500 74.333 L 372.500 72.833 367.792 72.854 C 365.202 72.865,362.635 72.939,362.088 73.019 M374.500 80.833 L 374.500 88.833 381.667 88.833 L 388.833 88.833 388.833 87.333 L 388.833 85.833 383.167 85.833 L 377.500 85.833 377.500 80.833 L 377.500 75.833 383.167 75.833 L 388.833 75.833 388.833 74.333 L 388.833 72.833 381.667 72.833 L 374.500 72.833 374.500 80.833 M127.779 76.294 C 128.735 76.976,128.741 78.516,127.791 79.088 C 127.304 79.381,126.857 79.419,123.292 79.474 L 119.333 79.535 119.333 80.757 L 119.333 81.979 123.458 82.031 C 128.115 82.090,128.269 82.128,128.665 83.327 C 129.350 85.405,128.272 85.833,122.360 85.833 L 117.667 85.833 117.667 80.822 L 117.667 75.810 122.458 75.864 C 127.127 75.915,127.264 75.926,127.779 76.294 M313.305 76.409 C 316.829 78.361,316.653 83.597,313.003 85.431 C 312.228 85.820,312.080 85.833,308.517 85.833 L 304.833 85.833 304.833 80.820 L 304.833 75.806 308.625 75.861 L 312.417 75.917 313.305 76.409 M138.833 80.750 L 138.833 82.000 143.333 82.000 L 147.833 82.000 147.833 80.750 L 147.833 79.500 143.333 79.500 L 138.833 79.500 138.833 80.750 M239.833 80.750 L 239.833 82.000 244.250 82.000 L 248.667 82.000 248.667 80.750 L 248.667 79.500 244.250 79.500 L 239.833 79.500 239.833 80.750 M262.750 80.750 L 262.750 82.000 267.208 82.000 L 271.667 82.000 271.667 80.750 L 271.667 79.500 267.208 79.500 L 262.750 79.500 262.750 80.750 M325.667 80.750 L 325.667 82.000 330.167 82.000 L 334.667 82.000 334.667 80.750 L 334.667 79.500 330.167 79.500 L 325.667 79.500 325.667 80.750 M379.333 80.750 L 379.333 82.000 383.750 82.000 L 388.167 82.000 388.167 80.750 L 388.167 79.500 383.750 79.500 L 379.333 79.500 379.333 80.750 " stroke="none" fill="#404040" fill-rule="evenodd"></path><path id="path3" d="M73.127 23.618 C 73.334 23.658,73.634 23.656,73.794 23.615 C 73.953 23.573,73.783 23.540,73.417 23.542 C 73.050 23.544,72.920 23.578,73.127 23.618 M160.580 42.750 C 160.580 52.467,160.600 56.466,160.625 51.638 C 160.650 46.809,160.650 38.859,160.625 33.971 C 160.600 29.083,160.580 33.033,160.580 42.750 M131.613 30.125 C 135.204 30.150,141.129 30.150,144.779 30.125 C 148.430 30.100,145.492 30.079,138.250 30.079 C 131.008 30.079,128.022 30.100,131.613 30.125 M234.910 30.208 C 234.866 30.323,234.850 36.042,234.875 42.917 L 234.919 55.417 234.959 42.793 L 235.000 30.169 244.958 30.125 L 254.917 30.081 244.953 30.040 C 237.106 30.009,234.973 30.044,234.910 30.208 M66.050 39.500 C 66.050 40.004,66.081 40.210,66.119 39.958 C 66.158 39.706,66.158 39.294,66.119 39.042 C 66.081 38.790,66.050 38.996,66.050 39.500 M45.740 41.042 L 45.250 41.583 45.792 41.094 C 46.297 40.638,46.410 40.500,46.281 40.500 C 46.252 40.500,46.009 40.744,45.740 41.042 M129.197 44.458 C 131.642 44.484,135.692 44.484,138.197 44.458 C 140.701 44.432,138.700 44.411,133.750 44.411 C 128.800 44.411,126.751 44.432,129.197 44.458 M245.042 44.458 C 247.219 44.485,250.781 44.485,252.958 44.458 C 255.135 44.432,253.354 44.410,249.000 44.410 C 244.646 44.410,242.865 44.432,245.042 44.458 M31.548 46.750 C 31.549 47.208,31.581 47.376,31.620 47.123 C 31.658 46.869,31.657 46.494,31.617 46.289 C 31.578 46.084,31.546 46.292,31.548 46.750 M46.875 49.583 C 46.877 49.950,46.911 50.080,46.951 49.873 C 46.991 49.666,46.990 49.366,46.948 49.206 C 46.906 49.047,46.874 49.217,46.875 49.583 M148.539 49.833 C 148.539 50.154,148.573 50.285,148.615 50.125 C 148.657 49.965,148.657 49.702,148.615 49.542 C 148.573 49.381,148.539 49.512,148.539 49.833 M388.406 52.875 L 387.917 53.417 388.458 52.927 C 388.963 52.471,389.077 52.333,388.948 52.333 C 388.919 52.333,388.675 52.577,388.406 52.875 M70.709 53.083 C 70.711 53.450,70.745 53.580,70.785 53.373 C 70.824 53.166,70.823 52.866,70.781 52.706 C 70.739 52.547,70.707 52.717,70.709 53.083 M122.375 55.458 C 126.110 55.483,132.223 55.483,135.958 55.458 C 139.694 55.433,136.637 55.413,129.167 55.413 C 121.696 55.413,118.640 55.433,122.375 55.458 M55.708 57.115 C 55.869 57.157,56.131 57.157,56.292 57.115 C 56.452 57.073,56.321 57.039,56.000 57.039 C 55.679 57.039,55.548 57.073,55.708 57.115 M262.721 80.750 C 262.722 81.392,262.752 81.634,262.788 81.288 C 262.824 80.942,262.824 80.417,262.787 80.121 C 262.750 79.825,262.721 80.108,262.721 80.750 " stroke="none" fill="#8c8c84" fill-rule="evenodd"></path><path id="path4" d="M72.379 25.333 C 72.379 25.746,72.411 25.915,72.451 25.708 C 72.491 25.502,72.491 25.165,72.451 24.958 C 72.411 24.752,72.379 24.921,72.379 25.333 M138.371 25.124 L 151.325 25.169 151.377 27.668 L 151.430 30.167 151.423 27.625 L 151.417 25.083 138.417 25.082 L 125.417 25.080 138.371 25.124 M162.999 25.123 L 165.498 25.175 165.542 42.713 L 165.586 60.250 165.584 42.667 L 165.583 25.083 163.041 25.077 L 160.500 25.070 162.999 25.123 M236.637 25.125 C 240.334 25.150,246.334 25.150,249.971 25.125 C 253.608 25.100,250.583 25.079,243.250 25.079 C 235.917 25.079,232.941 25.100,236.637 25.125 M309.833 25.125 C 309.833 25.194,310.864 25.231,312.125 25.207 C 316.366 25.127,316.772 25.066,313.292 25.033 C 311.390 25.015,309.833 25.056,309.833 25.125 M345.645 25.292 C 345.441 25.552,345.446 25.560,345.692 25.368 C 345.901 25.205,346.725 25.164,349.068 25.201 C 350.772 25.228,352.167 25.194,352.167 25.125 C 352.166 24.825,345.885 24.986,345.645 25.292 M360.249 25.123 L 362.831 25.175 362.876 35.754 L 362.920 46.333 362.919 35.708 L 362.917 25.083 360.291 25.077 L 357.666 25.070 360.249 25.123 M393.374 25.122 L 395.831 25.176 395.876 35.546 L 395.921 45.917 395.919 35.500 L 395.917 25.083 393.417 25.076 L 390.917 25.069 393.374 25.122 M49.627 26.618 C 49.834 26.658,50.134 26.656,50.294 26.615 C 50.453 26.573,50.283 26.540,49.917 26.542 C 49.550 26.544,49.420 26.578,49.627 26.618 M117.573 28.042 L 117.083 28.583 117.625 28.094 C 117.923 27.825,118.167 27.581,118.167 27.552 C 118.167 27.423,118.029 27.537,117.573 28.042 M27.833 34.719 C 27.833 34.748,28.077 34.991,28.375 35.260 L 28.917 35.750 28.427 35.208 C 27.971 34.703,27.833 34.590,27.833 34.719 M76.042 39.083 C 76.044 39.450,76.078 39.580,76.118 39.373 C 76.158 39.166,76.156 38.866,76.115 38.706 C 76.073 38.547,76.040 38.717,76.042 39.083 M24.714 40.917 C 24.716 41.375,24.748 41.543,24.786 41.289 C 24.825 41.036,24.824 40.661,24.784 40.456 C 24.744 40.251,24.713 40.458,24.714 40.917 M49.625 40.451 C 49.831 40.491,50.169 40.491,50.375 40.451 C 50.581 40.411,50.413 40.379,50.000 40.379 C 49.587 40.379,49.419 40.411,49.625 40.451 M129.637 40.458 C 132.233 40.484,136.433 40.484,138.970 40.458 C 141.507 40.432,139.383 40.411,134.250 40.411 C 129.117 40.411,127.041 40.432,129.637 40.458 M244.947 40.458 C 247.163 40.484,250.838 40.484,253.113 40.458 C 255.389 40.432,253.575 40.411,249.083 40.411 C 244.592 40.410,242.730 40.432,244.947 40.458 M45.872 43.833 C 45.872 44.154,45.906 44.285,45.948 44.125 C 45.990 43.965,45.990 43.702,45.948 43.542 C 45.906 43.381,45.872 43.512,45.872 43.833 M40.792 44.451 C 40.998 44.491,41.335 44.491,41.542 44.451 C 41.748 44.411,41.579 44.379,41.167 44.379 C 40.754 44.379,40.585 44.411,40.792 44.451 M26.167 45.385 C 26.167 45.414,26.410 45.658,26.708 45.927 L 27.250 46.417 26.760 45.875 C 26.304 45.370,26.167 45.257,26.167 45.385 M79.042 47.250 C 79.044 47.617,79.078 47.747,79.118 47.540 C 79.158 47.332,79.156 47.032,79.115 46.873 C 79.073 46.714,79.040 46.883,79.042 47.250 M57.794 47.951 C 58.001 47.991,58.301 47.990,58.460 47.948 C 58.620 47.906,58.450 47.874,58.083 47.875 C 57.717 47.877,57.586 47.911,57.794 47.951 M60.872 53.167 C 60.872 53.487,60.906 53.619,60.948 53.458 C 60.990 53.298,60.990 53.035,60.948 52.875 C 60.906 52.715,60.872 52.846,60.872 53.167 M56.627 53.285 C 56.834 53.324,57.134 53.323,57.294 53.281 C 57.453 53.239,57.283 53.207,56.917 53.209 C 56.550 53.211,56.420 53.245,56.627 53.285 M240.042 55.458 C 242.860 55.484,247.473 55.484,250.292 55.458 C 253.110 55.433,250.804 55.412,245.167 55.412 C 239.529 55.412,237.223 55.433,240.042 55.458 " stroke="none" fill="#9c9494" fill-rule="evenodd"></path></g></svg>